<?xml version="1.0" standalone="no"?>
<!DOCTYPE svg PUBLIC "-//W3C//DTD SVG 20010904//EN"
 "http://www.w3.org/TR/2001/REC-SVG-20010904/DTD/svg10.dtd">
<svg version="1.0" xmlns="http://www.w3.org/2000/svg"
 width="400.000000pt" height="400.000000pt" viewBox="0 0 400.000000 400.000000"
 preserveAspectRatio="xMidYMid meet">
<metadata>
Created by potrace 1.11, written by Peter Selinger 2001-2013
</metadata>
<g transform="translate(0.000000,400.000000) scale(0.100000,-0.100000)"
fill="#000000" stroke="none">
<path d="M1706 3324 c-3 -9 -10 -12 -16 -9 -6 4 -10 -6 -10 -22 0 -20 -3 -24
-9 -14 -6 9 -9 1 -10 -25 -1 -49 -5 -72 -14 -80 -12 -12 -8 -36 6 -29 6 4 5 1
-3 -7 -9 -7 -14 -25 -12 -42 2 -18 0 -26 -7 -21 -8 4 -8 -2 -1 -20 7 -17 7
-24 0 -20 -6 3 -10 -1 -10 -10 0 -10 5 -14 13 -10 6 4 5 1 -3 -7 -8 -7 -15
-24 -14 -38 0 -14 -4 -33 -9 -44 -6 -13 -6 -16 2 -12 16 10 13 0 -5 -18 -9 -9
-11 -16 -4 -16 6 0 8 -5 4 -12 -4 -6 -8 -21 -10 -32 -1 -12 -6 -30 -10 -40 -6
-15 -4 -17 7 -11 11 7 12 6 2 -6 -7 -8 -13 -32 -15 -53 -1 -20 -6 -40 -10 -42
-5 -3 -6 -9 -3 -14 3 -5 1 -19 -4 -32 -5 -14 -6 -31 -1 -39 6 -9 3 -20 -7 -31
-13 -15 -13 -18 -2 -18 9 0 10 -3 3 -8 -11 -7 -14 -25 -14 -70 0 -13 -4 -21
-8 -18 -5 3 -9 -1 -9 -9 0 -8 5 -12 10 -8 5 3 1 -6 -8 -21 -10 -15 -13 -26 -6
-26 7 0 8 -8 1 -25 -7 -18 -6 -25 3 -25 8 0 8 -3 -2 -9 -8 -5 -11 -16 -8 -26
4 -9 3 -13 -3 -10 -8 5 -10 -4 -10 -68 0 -19 -4 -26 -11 -22 -8 6 -8 2 0 -13
8 -15 7 -23 -2 -31 -7 -6 -12 -28 -11 -51 1 -22 -3 -40 -7 -40 -5 0 -9 -5 -9
-11 0 -5 6 -7 13 -3 9 6 9 5 0 -8 -7 -8 -14 -38 -15 -66 -1 -29 -6 -48 -12
-45 -5 4 -7 -1 -3 -10 3 -9 1 -18 -6 -21 -9 -3 -8 -5 1 -5 9 -1 10 -7 4 -18
-4 -10 -7 -28 -6 -40 0 -13 -2 -23 -5 -23 -7 0 -11 -32 -11 -88 1 -19 -3 -31
-8 -28 -5 3 -9 -1 -9 -9 0 -8 4 -12 8 -9 5 3 2 -10 -5 -28 -7 -18 -11 -49 -9
-68 2 -24 0 -31 -6 -20 -6 8 -10 49 -10 92 0 43 -3 83 -6 89 -4 5 -1 16 5 24
7 8 8 15 3 15 -5 0 -9 16 -10 35 -1 24 3 33 10 28 7 -3 5 2 -3 13 -11 14 -15
44 -15 111 0 55 -4 93 -10 93 -7 0 -7 3 0 8 11 8 16 42 6 42 -4 0 -6 12 -5 28
1 15 3 27 4 27 7 0 4 73 -2 88 -6 11 -5 17 3 17 8 0 9 4 0 13 -8 10 -7 17 1
25 7 7 8 12 2 12 -12 0 -12 100 0 119 7 10 6 12 -4 6 -10 -6 -11 -2 -6 19 4
18 3 25 -4 21 -5 -3 -10 -1 -10 4 0 6 4 11 10 11 5 0 8 6 6 13 -14 45 -16 68
-5 61 8 -5 9 -3 4 6 -5 8 -10 61 -12 119 -2 59 -5 112 -8 119 -2 6 1 12 8 12
7 0 8 3 2 8 -12 9 -13 52 -1 71 6 9 5 12 -1 8 -6 -4 -14 0 -17 9 -3 8 -2 12 4
9 6 -3 7 1 4 9 -3 9 -10 13 -15 10 -5 -3 -9 1 -9 9 0 19 -57 40 -66 25 -4 -7
-8 -7 -13 0 -4 7 -16 3 -31 -10 -14 -11 -18 -17 -10 -13 13 6 13 5 0 -7 -8 -7
-22 -22 -30 -32 -13 -18 -13 -19 0 -11 12 7 13 6 3 -6 -7 -9 -11 -25 -8 -38 2
-12 0 -19 -6 -16 -9 6 -13 -8 -10 -34 2 -7 -2 -10 -8 -6 -7 3 -8 0 -5 -10 4
-8 2 -21 -4 -28 -5 -6 -8 -20 -7 -29 2 -10 -1 -18 -6 -18 -4 0 -6 -6 -3 -14 3
-8 1 -17 -4 -20 -6 -3 -8 -15 -5 -26 3 -11 0 -20 -6 -20 -6 0 -10 -3 -10 -7 4
-25 -2 -53 -11 -48 -5 3 -8 -7 -5 -25 2 -16 0 -30 -3 -30 -10 0 -33 -101 -25
-113 3 -6 1 -7 -5 -3 -11 7 -16 -12 -15 -51 1 -7 -3 -13 -9 -13 -5 0 -6 -4 -3
-10 3 -5 2 -10 -4 -10 -6 0 -8 -7 -5 -15 4 -8 2 -15 -2 -15 -8 0 -13 -26 -14
-77 0 -13 -5 -23 -11 -23 -5 0 -7 -4 -4 -10 3 -5 2 -10 -4 -10 -5 0 -8 -11 -7
-25 2 -13 0 -22 -5 -20 -4 3 -8 -3 -8 -12 0 -17 -8 -58 -11 -58 -3 0 -12 -39
-13 -57 -1 -10 -4 -18 -8 -18 -4 0 -10 -7 -13 -16 -3 -8 -2 -13 3 -10 5 4 7
-3 4 -14 -3 -11 -9 -18 -13 -15 -5 3 -7 -3 -5 -12 1 -10 -3 -24 -9 -32 -9 -12
-8 -13 4 -6 9 5 7 -1 -5 -15 -11 -13 -14 -20 -7 -16 11 7 11 3 0 -20 -8 -16
-13 -37 -10 -48 2 -12 0 -16 -8 -11 -6 4 -9 9 -7 12 3 2 2 17 -3 33 -5 18 -4
32 3 39 7 7 7 11 1 11 -11 0 -12 3 -17 55 -2 17 -7 36 -11 43 -4 7 -2 12 6 12
8 0 9 3 3 8 -12 8 -17 26 -20 64 -1 15 -4 31 -8 34 -4 4 -1 14 6 22 7 10 8 13
1 9 -7 -4 -14 2 -17 13 -3 12 -1 18 5 14 5 -3 3 7 -6 24 -11 21 -12 32 -5 34
8 3 5 10 -5 21 -10 9 -12 17 -6 17 7 0 8 6 1 18 -5 10 -8 27 -7 38 2 10 -1 27
-6 37 -6 12 -5 17 4 17 9 0 9 3 -2 10 -18 11 -20 30 -6 49 8 11 8 13 -1 7 -7
-4 -13 -3 -13 2 0 14 -36 52 -44 45 -3 -3 -6 -2 -6 3 0 6 -11 10 -24 10 -14 0
-22 -4 -19 -10 4 -5 -1 -7 -10 -3 -10 3 -17 2 -17 -3 0 -6 -7 -10 -15 -10 -9
0 -12 -6 -9 -15 4 -8 1 -15 -5 -15 -6 0 -11 -5 -11 -11 0 -5 6 -7 13 -3 6 4 4
-2 -6 -13 -9 -11 -14 -23 -10 -26 3 -4 1 -7 -5 -7 -6 0 -9 -7 -6 -15 4 -8 1
-15 -6 -15 -7 0 -9 -8 -5 -21 5 -15 4 -19 -4 -15 -10 7 -16 -19 -12 -53 2 -7
-2 -10 -8 -6 -11 6 -14 -2 -14 -37 0 -10 -4 -18 -8 -18 -5 0 -8 -3 -8 -7 4
-26 -2 -43 -13 -37 -8 5 -7 0 2 -11 9 -11 10 -16 3 -11 -12 7 -17 -6 -16 -41
1 -7 -7 -13 -16 -13 -14 0 -14 -2 -1 -10 9 -6 11 -10 3 -10 -7 0 -10 -7 -7
-15 4 -8 1 -15 -6 -15 -6 0 -9 -4 -5 -9 3 -5 0 -13 -7 -18 -17 -11 -78 -11
-78 0 0 4 -5 5 -10 2 -6 -4 -7 -12 -3 -18 4 -7 0 -7 -10 1 -9 8 -21 11 -28 7
-6 -4 -15 -1 -20 6 -5 8 -9 9 -9 4 0 -12 -79 -13 -98 -2 -6 5 -12 4 -12 -1 0
-12 -32 -12 -47 1 -9 6 -13 6 -13 -1 0 -7 -7 -9 -17 -5 -10 4 -14 2 -10 -4 5
-7 0 -9 -12 -6 -11 3 -27 -3 -39 -15 -11 -11 -22 -19 -24 -16 -2 2 -3 -16 -2
-39 1 -23 2 -43 4 -44 1 -2 3 -9 4 -15 0 -7 7 -13 14 -13 7 0 16 -5 20 -10 4
-5 21 -10 37 -10 17 0 36 -4 44 -10 10 -7 13 -7 9 0 -4 7 8 11 32 11 25 0 37
-3 33 -10 -5 -8 -3 -8 8 0 17 12 58 12 78 0 9 -6 12 -5 8 1 -4 6 10 9 33 9 22
-1 40 -5 40 -10 0 -6 6 -2 13 9 11 14 16 15 22 5 6 -9 4 -11 -5 -5 -9 5 -11 4
-6 -4 4 -6 12 -8 19 -4 19 11 87 11 87 -1 0 -6 5 -3 11 7 6 9 14 15 20 12 11
-8 61 44 53 56 -3 5 0 9 6 9 6 0 9 4 5 9 -3 5 0 13 6 16 5 4 8 13 5 21 -3 8
-1 14 5 14 6 0 8 4 5 9 -4 5 0 12 6 14 10 4 10 6 1 6 -15 1 4 51 20 51 5 0 3
-8 -4 -17 -12 -14 -12 -16 1 -11 12 4 15 -3 14 -34 0 -21 3 -41 8 -44 4 -3 8
-10 8 -15 0 -6 -5 -7 -11 -3 -6 3 -3 -6 7 -22 12 -17 14 -25 6 -20 -11 7 -12
4 -3 -13 7 -11 9 -21 5 -21 -3 0 0 -8 7 -17 12 -14 12 -16 0 -8 -11 6 -12 5
-5 -6 10 -17 13 -31 18 -85 2 -23 6 -46 10 -53 4 -6 4 -11 0 -11 -3 0 0 -8 7
-17 12 -14 12 -16 0 -8 -10 6 -12 4 -6 -5 4 -7 9 -23 11 -34 1 -12 6 -30 10
-40 6 -15 4 -17 -6 -11 -9 5 -7 0 3 -16 19 -27 22 -43 6 -33 -6 3 -4 -7 5 -23
8 -17 12 -40 9 -53 -4 -16 -3 -21 5 -16 7 4 10 -1 7 -13 -2 -11 3 -22 12 -25
9 -4 13 -9 9 -13 -13 -13 38 -30 59 -20 19 10 19 9 5 -9 -13 -17 -13 -17 9 1
13 11 25 19 27 18 9 -6 24 -3 23 5 -4 21 2 32 13 26 8 -5 9 -2 5 9 -3 9 -2 19
4 23 6 3 8 12 5 20 -3 7 2 20 10 29 9 8 11 15 6 15 -6 0 -8 9 -5 20 3 11 9 18
13 15 4 -2 6 11 5 31 -1 19 3 38 8 41 6 4 7 1 2 -7 -5 -8 -4 -11 2 -7 6 4 8
18 5 32 -2 14 0 25 6 25 6 0 9 8 7 19 -2 10 2 29 9 43 7 13 11 29 8 36 -2 7 4
20 14 28 11 9 13 12 5 8 -11 -5 -13 -3 -8 10 4 10 7 20 7 22 0 3 6 2 13 -2 8
-5 8 -2 -2 9 -7 9 -9 17 -4 17 5 0 10 6 11 13 2 20 18 96 22 107 1 3 2 9 1 14
-1 5 6 6 15 2 14 -5 15 -4 4 9 -10 12 -9 20 5 41 9 15 12 23 6 20 -6 -4 -11
-2 -11 3 0 6 4 11 9 11 5 0 12 7 15 16 4 9 2 13 -5 8 -8 -4 -7 0 0 15 7 12 9
27 5 33 -5 7 -2 9 8 6 9 -4 15 0 15 8 0 8 -5 14 -10 14 -5 0 -4 6 2 13 6 8 8
17 4 20 -3 4 0 7 7 7 7 0 10 3 7 7 -4 3 -1 13 6 21 10 13 9 14 -3 7 -9 -5 -7
1 5 15 11 13 14 20 8 16 -7 -4 -13 -2 -13 3 0 6 4 11 8 11 9 0 11 8 14 55 1
14 6 25 11 25 4 0 5 5 1 12 -4 7 -3 8 4 4 9 -5 9 -13 2 -27 -7 -12 -7 -19 -1
-19 6 0 7 -7 4 -17 -4 -10 -2 -14 4 -10 6 4 9 -7 6 -31 -5 -46 -5 -48 1 -95 4
-27 2 -36 -7 -30 -9 5 -9 3 0 -8 7 -8 11 -34 10 -56 -1 -23 1 -39 5 -37 4 3 4
-6 -2 -20 -5 -15 -5 -28 0 -31 5 -3 5 -18 0 -34 -4 -15 -4 -34 0 -42 5 -7 6
-18 3 -23 -6 -9 -7 -39 -4 -77 1 -5 6 -7 11 -4 6 3 10 1 10 -4 0 -6 -5 -11
-10 -11 -7 0 -7 -7 1 -21 6 -13 7 -19 1 -15 -11 7 -11 -12 1 -31 5 -7 4 -13 0
-13 -5 0 -9 -9 -9 -19 0 -11 3 -18 7 -15 4 2 6 -41 6 -96 0 -55 3 -103 6 -106
4 -4 2 -15 -4 -25 -5 -11 -6 -19 -1 -19 4 0 8 -9 9 -20 1 -12 -3 -18 -9 -14
-7 5 -7 1 -1 -11 6 -10 8 -27 5 -38 -4 -15 -2 -18 8 -12 9 6 11 4 5 -6 -11
-17 -12 -50 -1 -67 4 -6 3 -12 -1 -12 -5 0 -9 -9 -9 -19 0 -11 4 -17 8 -15 4
3 8 0 8 -5 0 -6 -5 -11 -11 -11 -8 0 -8 -5 1 -15 9 -10 9 -15 1 -15 -6 0 -11
-5 -11 -11 0 -5 4 -8 8 -5 5 3 8 -24 7 -60 0 -36 2 -67 7 -70 4 -3 3 -16 -2
-29 -6 -16 -6 -27 1 -31 6 -4 6 -11 -2 -20 -6 -8 -7 -14 -2 -14 6 0 9 -16 8
-35 -2 -21 2 -35 9 -35 7 0 7 -3 1 -8 -16 -11 -17 -33 -3 -50 11 -13 11 -15
-2 -7 -12 6 -13 5 -3 -5 10 -11 9 -16 -5 -27 -16 -12 -16 -13 0 -7 14 5 16 1
12 -20 -2 -14 -1 -26 3 -25 23 4 35 -3 30 -15 -4 -11 -1 -13 10 -9 12 5 14 3
8 -8 -6 -11 -5 -11 5 -2 9 8 20 9 37 2 21 -8 24 -7 20 6 -4 8 -3 14 1 14 20
-3 32 3 32 16 0 8 5 15 10 15 6 0 10 5 10 11 0 5 -6 7 -12 4 -7 -4 -6 -1 3 7
10 8 14 24 12 40 -2 16 1 28 7 28 7 0 8 6 0 19 -7 14 -7 22 0 26 6 4 8 10 5
15 -3 5 -1 11 4 14 5 3 7 16 3 28 -4 16 -2 19 9 13 11 -7 11 -5 -1 10 -8 10
-10 16 -3 12 8 -5 11 3 9 28 -2 19 0 35 4 35 4 0 6 16 5 35 -1 21 4 36 12 39
10 4 11 11 4 24 -7 13 -7 22 1 30 7 7 8 12 4 12 -5 0 -3 6 3 14 8 10 9 16 1
21 -6 3 -7 12 -3 18 8 13 12 30 16 69 2 14 10 34 17 44 10 12 11 15 2 10 -10
-6 -11 -1 -6 21 3 15 7 49 8 75 0 25 4 44 7 42 10 -6 15 16 14 59 0 27 4 37
15 37 9 0 11 3 5 8 -11 8 -13 31 -4 47 4 6 5 18 4 28 -2 9 2 17 8 17 7 0 5 5
-3 10 -12 8 -12 10 -1 10 8 0 11 7 8 20 -3 11 -1 22 3 25 5 3 7 13 5 23 -1 9
3 23 9 31 8 11 8 13 -1 7 -7 -4 -13 -2 -13 3 0 6 8 11 18 11 10 0 13 3 7 8
-12 8 -13 27 -3 37 3 4 4 18 2 31 -3 15 0 24 8 24 9 0 8 3 -2 10 -12 8 -12 10
-1 10 8 0 11 3 8 7 -4 3 -2 12 4 20 9 10 8 13 -2 13 -11 0 -11 2 1 10 12 8 12
10 1 10 -10 0 -11 3 -2 14 6 7 12 30 13 49 1 20 4 34 8 32 3 -2 5 9 4 26 -1
16 3 29 9 29 7 0 5 5 -3 10 -12 8 -12 10 -1 10 9 0 12 8 9 25 -3 14 -2 28 3
30 4 3 6 17 3 31 -3 14 -1 23 4 20 5 -3 9 1 9 9 0 8 -5 11 -11 8 -6 -3 -6 -1
1 7 6 7 9 18 7 25 -3 7 -1 16 5 19 6 4 7 14 4 23 -5 12 -3 14 7 8 9 -6 11 -4
5 5 -11 17 -13 60 -3 54 4 -2 7 4 7 13 3 56 7 83 13 83 5 0 8 5 8 11 0 5 -5 7
-12 3 -7 -5 -8 -3 -2 7 11 18 15 36 16 77 1 17 5 32 10 32 5 0 6 -11 2 -24 -3
-13 -1 -27 6 -31 8 -5 7 -11 -2 -23 -10 -12 -10 -14 0 -8 8 5 12 -1 13 -21 1
-15 1 -32 0 -36 -1 -4 4 -17 10 -29 8 -16 8 -19 -1 -13 -9 5 -9 3 -2 -11 5
-11 8 -29 7 -41 -1 -13 1 -23 4 -23 3 0 6 -25 6 -56 0 -31 3 -58 7 -60 3 -2 5
-12 3 -22 -1 -9 2 -23 8 -29 6 -9 6 -13 -3 -13 -9 0 -9 -4 -2 -12 5 -7 9 -30
8 -51 0 -20 2 -37 5 -37 3 0 6 -16 7 -36 1 -20 4 -39 7 -42 3 -3 -1 -12 -8
-20 -8 -11 -8 -14 0 -9 6 4 14 3 17 -2 4 -5 2 -12 -4 -16 -6 -4 -7 -12 -3 -18
12 -19 12 -36 2 -43 -6 -4 -6 -11 1 -19 6 -8 12 -26 14 -42 1 -15 5 -34 9 -41
5 -7 3 -12 -4 -12 -7 0 -8 -4 -2 -12 5 -7 9 -20 8 -28 0 -8 4 -18 10 -22 6 -5
5 -8 -4 -8 -11 0 -11 -3 -1 -15 6 -8 10 -20 7 -27 -2 -7 0 -21 5 -30 5 -11 5
-18 -1 -18 -5 0 -7 -9 -4 -20 3 -11 10 -20 16 -20 6 0 3 -6 -8 -13 -14 -11
-15 -16 -5 -22 9 -6 11 -4 5 5 -5 9 -4 11 3 6 7 -4 8 -15 3 -29 -6 -16 -4 -26
7 -36 10 -10 12 -16 4 -19 -8 -2 -9 -10 -3 -20 5 -9 7 -25 6 -34 -2 -10 0 -18
3 -18 4 0 7 -25 7 -56 0 -31 3 -58 8 -61 4 -2 5 -14 1 -25 -4 -13 -1 -24 7
-29 8 -5 9 -9 3 -9 -9 0 -11 -33 -3 -50 1 -3 3 -9 3 -15 1 -5 7 -20 14 -31 6
-12 9 -24 7 -28 -3 -3 -2 -4 1 -2 3 3 15 -3 26 -14 21 -19 34 -20 57 -6 10 7
12 6 6 -4 -5 -8 1 -7 16 3 13 10 24 23 24 30 1 6 6 11 13 10 6 -2 9 4 6 12 -4
8 -2 15 3 15 5 0 9 12 10 28 1 47 3 53 11 48 5 -3 9 1 9 9 0 8 -5 15 -11 15
-6 0 -4 5 6 10 10 7 14 17 10 32 -3 14 -2 19 6 14 9 -5 9 0 2 19 -7 19 -7 24
2 19 8 -5 9 -2 5 9 -3 9 -2 19 3 22 5 3 7 12 3 20 -4 11 0 14 13 9 15 -4 16
-4 5 4 -11 8 -11 16 -2 42 6 18 8 36 5 41 -3 5 -1 9 3 9 5 0 9 8 10 18 1 9 4
31 8 47 4 17 8 36 8 43 0 6 5 12 11 12 6 0 6 4 -1 11 -9 9 -8 17 2 33 7 11 11
29 10 39 -2 9 0 17 5 17 4 0 8 10 8 23 1 28 6 49 13 62 4 6 5 18 3 28 -1 12 2
17 11 13 9 -3 12 0 8 9 -3 8 -10 12 -17 9 -6 -3 -4 0 4 8 9 7 15 23 14 36 -1
14 4 22 15 22 13 0 13 2 2 9 -9 6 -11 15 -6 27 5 11 7 25 6 32 -1 6 3 12 10
12 8 0 7 5 -2 17 -10 11 -10 14 -1 9 7 -4 12 -1 13 8 1 9 3 21 4 26 1 6 3 21
4 35 0 14 7 25 14 25 9 0 13 -12 12 -35 0 -19 3 -35 7 -35 3 0 7 -8 7 -17 2
-51 12 -97 23 -105 10 -6 10 -8 -1 -8 -9 0 -10 -4 -4 -12 6 -7 9 -21 8 -30 -2
-10 1 -20 6 -24 5 -3 7 -9 4 -14 -3 -5 0 -20 6 -32 12 -22 11 -22 -7 -8 -18
14 -18 14 -3 -5 9 -11 15 -30 14 -42 -1 -13 2 -23 6 -23 4 0 6 -13 5 -29 -1
-17 2 -27 7 -24 6 3 8 -7 5 -26 -3 -21 0 -31 9 -31 7 0 12 -3 12 -7 -4 -24 3
-35 17 -29 8 3 12 2 9 -3 -3 -5 -1 -12 4 -15 5 -4 13 -2 16 4 5 8 11 7 21 -1
11 -9 14 -9 14 1 0 7 6 10 13 7 14 -5 39 17 30 27 -4 3 -1 6 6 6 7 0 10 4 7 9
-3 5 1 12 10 15 13 5 14 9 4 21 -9 10 -9 15 -1 15 6 0 11 7 11 16 0 8 5 12 11
8 7 -4 7 1 -1 16 -8 15 -8 20 -1 16 7 -5 11 1 11 14 0 14 4 19 13 14 7 -5 6 0
-3 11 -9 11 -10 16 -2 11 11 -6 15 4 11 30 0 4 4 10 10 14 7 3 13 20 14 37 1
17 5 29 8 27 3 -2 11 8 18 22 6 14 7 23 1 19 -6 -3 -7 1 -4 9 3 9 10 16 15 16
4 0 6 7 3 15 -4 8 -2 15 3 15 9 0 11 6 15 50 1 11 8 20 15 20 7 0 10 6 7 13
-3 8 1 19 9 25 9 8 12 23 9 39 -3 18 -1 24 7 19 6 -4 11 -4 12 1 0 4 3 19 5
33 2 14 5 31 6 38 1 6 5 12 10 12 5 0 7 4 3 9 -3 5 -1 12 4 15 5 4 8 -2 7 -11
-2 -10 2 -21 8 -25 8 -5 7 -8 -2 -8 -9 0 -10 -5 -3 -19 6 -10 7 -21 4 -25 -3
-3 -1 -6 5 -6 7 0 12 -5 12 -11 0 -5 -5 -7 -11 -3 -8 4 -8 0 0 -15 7 -12 9
-25 6 -30 -3 -5 -1 -11 5 -13 5 -1 11 -22 12 -45 2 -24 6 -43 9 -43 4 0 5 -14
3 -31 -3 -20 0 -28 7 -23 8 4 9 -1 4 -15 -4 -13 -1 -28 5 -36 10 -12 10 -15
-1 -15 -12 0 -12 -2 0 -9 7 -5 10 -14 7 -20 -4 -6 -3 -11 2 -11 6 0 8 -9 5
-20 -3 -11 -1 -20 4 -20 5 0 9 -9 10 -20 1 -11 -2 -18 -7 -15 -6 3 -7 -1 -4
-9 3 -9 11 -13 17 -9 6 3 7 1 3 -5 -4 -6 0 -24 8 -40 8 -16 12 -33 8 -37 -4
-3 -2 -6 3 -5 6 1 12 1 15 0 17 -8 89 -6 84 2 -4 6 2 8 15 3 15 -4 21 -2 21 8
0 9 5 17 11 19 5 2 12 12 14 23 2 11 4 22 5 25 1 3 2 8 1 13 0 4 4 7 10 7 6 0
8 7 5 15 -3 9 1 18 9 21 8 4 13 10 10 14 -3 5 2 16 11 24 11 12 12 16 2 16
-10 0 -10 2 1 9 7 5 10 14 7 20 -4 6 -3 11 1 11 5 0 14 9 21 21 8 12 9 18 3
15 -7 -4 -8 -1 -5 8 3 9 11 13 18 9 6 -3 8 -3 4 2 -4 4 -2 15 5 23 9 13 9 14
0 8 -9 -5 -11 -2 -7 8 3 9 13 16 21 16 13 0 13 2 2 16 -11 14 -10 19 8 34 12
10 19 20 16 24 -4 3 0 6 8 6 13 0 17 -12 21 -57 1 -7 5 -13 10 -13 4 0 8 -9 8
-20 0 -11 5 -20 11 -20 5 0 8 -4 5 -9 -3 -5 0 -24 8 -42 8 -19 14 -38 14 -42
1 -5 10 -17 21 -26 11 -10 18 -20 16 -23 -3 -3 7 -4 22 -4 16 1 34 -3 41 -8 7
-5 12 -4 12 3 0 6 6 10 13 9 6 -2 11 3 9 10 -1 6 5 12 14 12 8 0 12 5 9 10 -3
6 -1 10 5 10 7 0 10 6 7 14 -3 8 1 17 10 20 10 4 13 14 10 27 -3 12 0 22 9 26
8 3 12 9 9 13 -3 5 -1 11 5 15 6 4 8 10 5 15 -3 4 2 11 10 14 17 6 31 -17 20
-34 -3 -5 -1 -10 5 -10 7 0 10 -7 6 -15 -3 -9 0 -15 10 -15 8 0 13 -4 10 -9
-3 -5 2 -15 11 -22 14 -12 15 -12 9 0 -5 8 3 6 20 -5 17 -12 25 -14 20 -6 -7
11 -4 12 12 3 15 -8 22 -8 25 2 4 9 6 9 6 0 1 -7 6 -13 12 -13 5 0 7 5 3 11
-4 8 0 8 15 0 16 -9 21 -9 22 1 0 7 4 4 9 -7 8 -18 9 -18 9 -2 1 15 5 16 21 7
15 -8 20 -8 20 2 0 9 3 9 11 -2 8 -12 12 -12 16 -2 4 10 8 10 19 1 11 -9 14
-8 15 2 0 8 4 5 9 -6 8 -19 9 -19 9 -1 1 15 4 16 16 6 8 -7 15 -8 15 -3 0 5
14 14 31 20 17 7 28 17 24 22 -3 6 -2 11 3 11 5 0 9 16 9 35 0 19 -4 35 -9 35
-5 0 -7 4 -3 9 3 5 -4 12 -15 16 -11 4 -18 10 -16 14 3 4 -1 8 -9 8 -8 0 -15
-4 -15 -9 0 -4 -5 -8 -11 -8 -5 0 -7 5 -3 12 5 8 0 9 -14 6 -12 -4 -22 -2 -22
4 0 5 -5 6 -10 3 -6 -4 -7 -12 -3 -18 5 -9 3 -9 -8 -1 -8 7 -26 11 -41 9 -16
-2 -28 2 -28 8 0 8 -3 8 -8 2 -4 -5 -18 -10 -32 -11 -22 -1 -26 4 -25 25 0 14
-5 32 -12 39 -7 7 -10 19 -7 27 3 8 2 20 -2 27 -4 7 -9 21 -11 33 -5 40 -9 55
-16 61 -4 4 -1 14 6 22 9 13 9 14 0 8 -9 -5 -13 0 -13 13 0 12 -6 21 -12 21
-9 0 -8 4 2 10 8 5 10 10 4 10 -6 0 -24 12 -40 26 -17 17 -30 22 -32 15 -3 -9
-8 -9 -17 -1 -10 8 -15 8 -21 -1 -5 -8 -3 -9 6 -4 8 5 11 4 7 -3 -4 -5 -16 -8
-27 -5 -18 5 -22 -1 -19 -24 0 -3 -6 -10 -15 -15 -9 -5 -16 -18 -16 -28 0 -10
-5 -22 -10 -25 -6 -4 -8 -11 -5 -16 4 -5 2 -9 -3 -9 -5 0 -9 -8 -9 -17 1 -20
-39 -109 -52 -117 -4 -3 -8 5 -7 17 1 12 -7 31 -16 41 -14 16 -15 22 -5 35 9
12 9 13 0 7 -11 -6 -18 6 -10 18 1 2 -6 13 -17 24 -10 12 -16 27 -14 34 3 7
-6 23 -19 35 -13 12 -24 26 -26 30 -1 5 -5 7 -9 5 -5 -1 -8 3 -8 9 0 5 -4 8
-9 4 -5 -3 -12 -1 -16 4 -3 6 -16 6 -35 -1 -17 -5 -27 -14 -24 -19 3 -5 -2 -9
-10 -9 -9 0 -16 -9 -16 -20 0 -11 -4 -20 -10 -20 -5 0 -6 -7 -3 -17 5 -12 3
-14 -7 -8 -8 5 -11 4 -6 -3 3 -6 -3 -27 -14 -46 -11 -20 -21 -39 -22 -44 -2
-4 -6 -6 -9 -5 -3 1 -6 -4 -6 -12 0 -8 5 -11 11 -8 5 4 0 -8 -13 -26 -13 -18
-21 -35 -18 -38 4 -3 -1 -12 -9 -20 -8 -8 -11 -20 -7 -26 4 -7 0 -8 -12 -3
-14 5 -15 3 -8 -6 6 -8 7 -22 2 -33 -6 -17 -8 -17 -8 -2 -1 9 -6 17 -12 17 -5
0 -8 4 -5 9 4 5 0 12 -6 14 -10 4 -9 6 1 6 11 1 11 4 1 16 -10 12 -10 15 1 15
11 0 12 2 1 9 -7 4 -14 14 -15 22 -2 8 -7 20 -11 28 -7 11 -5 13 9 7 17 -6 18
-5 3 11 -8 10 -14 26 -13 36 2 9 -1 17 -5 17 -5 0 -7 10 -5 22 3 12 0 27 -5
33 -5 6 -8 21 -5 33 2 12 0 22 -5 22 -5 0 -9 8 -9 18 -2 51 -6 72 -12 72 -4 0
-6 8 -4 18 1 9 -2 25 -7 35 -6 11 -5 17 2 17 7 0 5 6 -3 15 -8 8 -14 29 -13
46 2 24 -4 36 -25 52 -16 11 -26 24 -22 30 3 5 -4 4 -16 -2 -16 -9 -21 -9 -21
1 0 8 -5 6 -11 -4 -5 -10 -15 -18 -22 -18 -7 0 -6 4 3 10 10 7 11 10 2 10 -7
0 -15 -7 -18 -15 -4 -8 -10 -12 -15 -9 -5 3 -8 0 -7 -8 2 -7 -4 -12 -12 -10
-8 2 -12 0 -8 -4 4 -4 2 -14 -5 -22 -10 -13 -9 -14 3 -7 12 7 13 6 3 -7 -7 -8
-10 -18 -6 -21 3 -4 1 -7 -6 -7 -8 0 -11 -7 -7 -15 3 -8 1 -15 -5 -15 -6 0 -7
-4 -4 -10 3 -5 2 -10 -4 -10 -6 0 -8 -6 -5 -14 3 -8 1 -17 -5 -21 -6 -3 -11
-13 -11 -22 0 -9 -8 -25 -17 -36 -13 -15 -14 -18 -3 -12 12 7 13 6 3 -7 -7 -8
-10 -18 -6 -21 3 -4 1 -7 -5 -7 -6 0 -9 -7 -6 -15 4 -8 1 -15 -5 -15 -6 0 -10
-3 -10 -7 3 -17 -14 -72 -21 -68 -4 2 -7 -6 -6 -18 1 -12 -4 -28 -10 -34 -7
-7 -10 -22 -7 -34 4 -15 3 -20 -5 -15 -8 5 -12 -1 -12 -18 0 -13 -6 -31 -13
-38 -8 -7 -13 -23 -12 -35 1 -12 -2 -20 -6 -18 -4 3 -10 -2 -13 -11 -3 -8 -2
-12 4 -9 5 3 7 -1 4 -9 -3 -8 -11 -13 -18 -10 -10 4 -16 34 -19 97 -1 9 -4 17
-7 17 -4 0 -6 18 -6 41 1 22 -2 43 -7 46 -4 2 -5 9 -2 14 4 5 0 9 -7 9 -11 0
-10 2 0 9 11 7 11 9 0 14 -10 3 -14 17 -12 41 2 20 0 35 -4 32 -4 -2 -7 11 -6
30 1 19 -2 34 -6 34 -4 0 -6 13 -4 30 2 16 -1 32 -6 35 -5 3 -6 13 -3 22 4 9
2 14 -3 11 -5 -4 -9 8 -9 25 -1 59 -13 99 -36 120 -24 22 -89 33 -89 16 0 -6
-4 -7 -10 -4 -5 3 -10 1 -10 -5 0 -6 -4 -8 -10 -5 -5 3 -10 -3 -10 -14 0 -12
-4 -21 -10 -21 -5 0 -10 -5 -10 -11 0 -5 6 -7 13 -4 6 4 4 0 -5 -8 -10 -8 -15
-17 -11 -20 3 -4 0 -14 -8 -24 -9 -11 -10 -14 -1 -9 6 4 12 2 12 -3 0 -6 -4
-11 -8 -11 -4 0 -8 -8 -9 -18 -2 -31 -8 -47 -18 -54 -6 -5 -5 -8 3 -8 6 0 12
-5 12 -11 0 -5 -5 -7 -11 -3 -8 5 -10 -1 -7 -20 4 -18 1 -29 -8 -33 -8 -3 -14
-9 -14 -15 0 -5 6 -6 13 -1 7 4 6 -2 -3 -17 -9 -14 -15 -35 -14 -47 1 -13 -2
-23 -6 -23 -4 0 -7 -6 -8 -12 -1 -27 -19 -113 -23 -113 -1 0 -3 -9 -5 -20 -6
-42 -14 -68 -24 -80 -8 -10 -8 -15 1 -20 8 -6 7 -10 -5 -17 -13 -7 -14 -13 -6
-23 8 -9 8 -15 0 -20 -6 -3 -8 -10 -5 -15 3 -5 1 -11 -5 -15 -15 -9 -12 -27 3
-20 6 4 5 1 -3 -7 -9 -7 -15 -23 -14 -35 1 -13 -2 -23 -7 -23 -5 0 -6 -6 -3
-14 3 -8 1 -17 -4 -20 -5 -3 -8 -17 -7 -31 2 -14 0 -25 -4 -25 -4 0 -8 -11 -9
-25 -3 -46 -5 -55 -13 -55 -3 0 -9 9 -12 20 -3 13 -1 18 6 13 7 -4 7 0 -1 9
-9 12 -10 18 -2 23 8 5 8 10 0 20 -6 7 -12 31 -14 52 -1 22 -6 45 -10 51 -4 7
-2 12 6 12 10 0 10 2 1 8 -7 5 -10 19 -7 36 2 15 1 25 -4 22 -4 -2 -9 4 -9 15
-1 12 3 17 10 13 9 -5 9 -4 0 6 -6 7 -9 19 -6 26 3 8 0 14 -6 14 -9 0 -9 5 -1
20 8 15 8 20 -1 20 -6 0 -9 9 -6 20 3 11 0 20 -6 20 -7 0 -5 5 3 10 8 5 10 10
4 10 -5 0 -9 18 -8 40 1 22 -2 40 -6 40 -5 0 -7 8 -5 18 2 9 4 17 5 17 1 0 3
10 4 22 2 19 0 21 -12 10 -13 -10 -14 -9 -3 12 9 16 9 21 2 16 -8 -4 -10 2 -7
21 3 15 1 35 -4 44 -6 11 -5 21 2 28 9 9 9 12 -1 12 -7 0 -9 5 -6 10 3 6 0 10
-7 10 -10 0 -10 2 1 9 9 6 10 11 2 15 -7 5 -7 15 -1 32 7 18 7 23 -1 18 -6 -3
-10 1 -9 12 1 11 1 21 0 24 -7 19 -5 50 4 50 7 0 6 3 -1 8 -7 4 -11 18 -8 30
2 13 0 20 -6 17 -5 -4 -7 8 -4 29 2 20 1 36 -4 36 -4 0 -6 18 -4 41 2 25 -1
38 -7 34 -7 -4 -7 2 0 19 5 14 6 26 1 26 -5 0 -8 18 -6 40 2 22 0 40 -4 40 -4
0 -7 17 -6 38 0 20 -4 43 -9 50 -7 9 -5 16 5 23 10 6 11 9 1 9 -7 0 -10 5 -7
10 3 6 0 10 -7 10 -9 0 -9 3 2 10 9 6 10 10 3 10 -8 0 -11 12 -8 36 3 19 1 33
-3 30 -5 -3 -9 1 -9 9 0 8 5 15 11 15 6 0 4 5 -4 10 -13 9 -13 10 0 10 13 0
13 2 1 9 -8 5 -11 16 -8 25 4 9 3 16 -2 16 -10 0 -8 31 4 49 5 10 4 12 -3 7
-8 -5 -12 2 -12 18 0 20 -5 26 -21 26 -11 0 -17 4 -14 10 3 5 -4 11 -17 14
-43 8 -66 5 -72 -10z"/>
<path d="M1176 2247 c3 -10 9 -15 12 -12 3 3 0 11 -7 18 -10 9 -11 8 -5 -6z"/>
</g>
</svg>
